<svg width="40" height="40" viewBox="0 0 40 40" fill="none" xmlns="http://www.w3.org/2000/svg">
<g id="Icon">
<g id="Group">
<path id="Vector" fill-rule="evenodd" clip-rule="evenodd" d="M20 3.75C11.025 3.75 3.75 11.025 3.75 20C3.75 28.975 11.025 36.25 20 36.25C28.975 36.25 36.25 28.975 36.25 20C36.25 11.025 28.975 3.75 20 3.75ZM1.25 20C1.25 9.645 9.645 1.25 20 1.25C30.355 1.25 38.75 9.645 38.75 20C38.75 30.355 30.355 38.75 20 38.75C9.645 38.75 1.25 30.355 1.25 20Z" fill="#262522"/>
<path id="Vector_2" fill-rule="evenodd" clip-rule="evenodd" d="M2.91669 4.16666C2.91669 3.83514 3.04838 3.51719 3.2828 3.28277C3.51722 3.04835 3.83517 2.91666 4.16669 2.91666H12.5C12.8315 2.91666 13.1495 3.04835 13.3839 3.28277C13.6183 3.51719 13.75 3.83514 13.75 4.16666C13.75 4.49818 13.6183 4.81612 13.3839 5.05054C13.1495 5.28496 12.8315 5.41666 12.5 5.41666H5.41669V12.5C5.41669 12.8315 5.28499 13.1495 5.05057 13.3839C4.81615 13.6183 4.49821 13.75 4.16669 13.75C3.83517 13.75 3.51722 13.6183 3.2828 13.3839C3.04838 13.1495 2.91669 12.8315 2.91669 12.5V4.16666ZM26.25 4.16666C26.25 3.83514 26.3817 3.51719 26.6161 3.28277C26.8506 3.04835 27.1685 2.91666 27.5 2.91666H35.8334C36.1649 2.91666 36.4828 3.04835 36.7172 3.28277C36.9517 3.51719 37.0834 3.83514 37.0834 4.16666V12.5C37.0834 12.8315 36.9517 13.1495 36.7172 13.3839C36.4828 13.6183 36.1649 13.75 35.8334 13.75C35.5018 13.75 35.1839 13.6183 34.9495 13.3839C34.715 13.1495 34.5834 12.8315 34.5834 12.5V5.41666H27.5C27.1685 5.41666 26.8506 5.28496 26.6161 5.05054C26.3817 4.81612 26.25 4.49818 26.25 4.16666ZM4.16669 26.25C4.49821 26.25 4.81615 26.3817 5.05057 26.6161C5.28499 26.8505 5.41669 27.1685 5.41669 27.5V34.5833H11.6667C11.9982 34.5833 12.3162 34.715 12.5506 34.9494C12.785 35.1839 12.9167 35.5018 12.9167 35.8333C12.9167 36.1648 12.785 36.4828 12.5506 36.7172C12.3162 36.9516 11.9982 37.0833 11.6667 37.0833H4.16669C3.83517 37.0833 3.51722 36.9516 3.2828 36.7172C3.04838 36.4828 2.91669 36.1648 2.91669 35.8333V27.5C2.91669 27.1685 3.04838 26.8505 3.2828 26.6161C3.51722 26.3817 3.83517 26.25 4.16669 26.25ZM35.8334 26.25C36.1649 26.25 36.4828 26.3817 36.7172 26.6161C36.9517 26.8505 37.0834 27.1685 37.0834 27.5V35.8333C37.0834 36.1648 36.9517 36.4828 36.7172 36.7172C36.4828 36.9516 36.1649 37.0833 35.8334 37.0833H27.5C27.1685 37.0833 26.8506 36.9516 26.6161 36.7172C26.3817 36.4828 26.25 36.1648 26.25 35.8333C26.25 35.5018 26.3817 35.1839 26.6161 34.9494C26.8506 34.715 27.1685 34.5833 27.5 34.5833H34.5834V27.5C34.5834 27.1685 34.715 26.8505 34.9495 26.6161C35.1839 26.3817 35.5018 26.25 35.8334 26.25ZM11.2217 12.96C11.3698 12.6634 11.6296 12.4378 11.944 12.3328C12.2585 12.2277 12.6018 12.2519 12.8984 12.4L16.1317 14.0167C17.2861 14.5945 18.2817 15.4459 19.0317 16.4967L23 22.05C23.515 22.7683 24.1967 23.35 24.9867 23.7467L28.22 25.3633C28.3711 25.4341 28.5065 25.5345 28.6182 25.6584C28.7298 25.7824 28.8156 25.9274 28.8703 26.0851C28.9251 26.2427 28.9477 26.4097 28.9369 26.5762C28.9261 26.7427 28.882 26.9053 28.8074 27.0545C28.7327 27.2037 28.6289 27.3365 28.5022 27.4449C28.3754 27.5534 28.2282 27.6354 28.0692 27.6861C27.9102 27.7368 27.7427 27.7551 27.5766 27.74C27.4104 27.725 27.2489 27.6768 27.1017 27.5983L23.8684 25.9817C22.7135 25.4045 21.7174 24.5537 20.9667 23.5033L17 17.95C16.4861 17.2308 15.8041 16.6483 15.0134 16.2533L11.78 14.6367C11.4837 14.4883 11.2585 14.2283 11.1538 13.9139C11.0491 13.5995 11.0735 13.2564 11.2217 12.96ZM17.1134 9.42332C17.1868 9.2764 17.2885 9.14539 17.4127 9.0378C17.5368 8.93021 17.6809 8.84814 17.8368 8.79628C17.9927 8.74443 18.1572 8.72381 18.3211 8.7356C18.4849 8.74739 18.6448 8.79135 18.7917 8.86499L21.7684 10.3533C23.1158 11.0265 24.2433 12.0701 25.0184 13.3617L26.555 15.925C27.085 16.8083 27.855 17.5217 28.7767 17.9833L31.755 19.4717C32.0394 19.6266 32.2526 19.8858 32.3497 20.1948C32.4467 20.5038 32.4201 20.8384 32.2753 21.1281C32.1306 21.4178 31.879 21.64 31.5737 21.7479C31.2683 21.8559 30.933 21.8411 30.6384 21.7067L27.66 20.2183C26.3126 19.5451 25.1851 18.5015 24.41 17.21L22.8734 14.6483C22.3436 13.7649 21.5729 13.0509 20.6517 12.59L17.6734 11.1017C17.5264 11.0282 17.3954 10.9265 17.2878 10.8023C17.1802 10.6782 17.0982 10.5341 17.0463 10.3782C16.9945 10.2223 16.9738 10.0578 16.9856 9.89393C16.9974 9.73008 17.0414 9.57017 17.115 9.42332H17.1134ZM7.68669 18.8517C7.83507 18.5554 8.09504 18.3301 8.40944 18.2254C8.72384 18.1207 9.06696 18.1451 9.36335 18.2933L12.3417 19.7817C13.6879 20.4554 14.8142 21.4989 15.5884 22.79L17.1267 25.3533C17.6567 26.2367 18.4267 26.95 19.3484 27.41L22.3267 28.9C22.4794 28.9697 22.6166 29.0694 22.7299 29.1932C22.8433 29.317 22.9305 29.4624 22.9865 29.6207C23.0424 29.779 23.0659 29.9469 23.0555 30.1145C23.0452 30.282 23.0012 30.4458 22.9261 30.5959C22.8511 30.7461 22.7466 30.8797 22.6188 30.9886C22.4911 31.0975 22.3427 31.1795 22.1825 31.2298C22.0224 31.2801 21.8537 31.2977 21.6866 31.2814C21.5195 31.2651 21.3574 31.2153 21.21 31.135L18.2317 29.6467C16.8842 28.9735 15.7568 27.9299 14.9817 26.6383L13.445 24.075C12.915 23.1922 12.1443 22.4788 11.2234 22.0183L8.24502 20.5283C7.94872 20.3799 7.72346 20.12 7.61877 19.8056C7.51407 19.4912 7.5385 19.1481 7.68669 18.8517Z" fill="#262522"/>
</g>
</g>
</svg>
